<svg xmlns="http://www.w3.org/2000/svg" version="1.1" xmlns:xlink="http://www.w3.org/1999/xlink" xmlns:svgjs="http://svgjs.dev/svgjs" width="1000" height="750" viewBox="0 0 1000 750"><rect width="1000" height="750" fill="#ffffff"></rect><g transform="matrix(0.834,0,0,0.834,82.49454545454546,123.62947556380328)"><svg viewBox="0 0 396 247" data-background-color="#ffffff" preserveAspectRatio="xMidYMid meet" height="623" width="1000" xmlns="http://www.w3.org/2000/svg" xmlns:xlink="http://www.w3.org/1999/xlink"><g id="tight-bounds" transform="matrix(1,0,0,1,0.2400000000000091,-0.09999999999999432)"><svg viewBox="0 0 395.52 247.2" height="247.2" width="395.52"><g><svg></svg></g><g><svg viewBox="0 0 395.52 247.2" height="247.2" width="395.52"><g transform="matrix(1,0,0,1,75.54432,71.97313396363636)"><svg viewBox="0 0 244.43135999999998 103.25373207272727" height="103.25373207272727" width="244.43135999999998"><g><svg viewBox="0 0 244.43135999999998 103.25373207272727" height="103.25373207272727" width="244.43135999999998"><g><svg viewBox="0 0 244.43135999999998 103.25373207272727" height="103.25373207272727" width="244.43135999999998"><g><svg viewBox="0 0 244.43135999999998 103.25373207272727" height="103.25373207272727" width="244.43135999999998"><g id="textblocktransform"><svg viewBox="0 0 244.43135999999998 103.25373207272727" height="103.25373207272727" width="244.43135999999998" id="textblock"><g><svg viewBox="0 0 244.43135999999998 103.25373207272727" height="103.25373207272727" width="244.43135999999998"><g transform="matrix(1,0,0,1,0,0)"><svg width="244.43135999999998" viewBox="1.5099999904632568 -33.63999938964844 80.56999969482422 34.029998779296875" height="103.25373207272727" data-palette-color="#ad6e7c"><path d="M2.2-26.22L2.34-28.66 12.6-28.66 22.8-7.03 21.39-7.03 30.57-28.66 40.87-28.66 41.02-26.22 37.89-25.49Q37.84-24.8 37.89-23.27 37.94-21.73 37.99-19.34L37.99-19.34 38.28-10.79Q38.38-8.74 38.48-7.13 38.57-5.52 38.65-4.49 38.72-3.47 38.77-3.22L38.77-3.22 41.89-2.44 41.75 0 28.47 0 28.32-2.44 31.45-3.22Q31.49-3.47 31.52-4.39 31.54-5.32 31.54-6.93 31.54-8.54 31.49-10.74L31.49-10.74 31.35-27.25 33.59-27.25 21.97 0.15 18.9 0.15 5.86-27.25 8.94-27.25 8.98-10.45Q8.98-6.69 9.03-5.1 9.08-3.52 9.13-3.22L9.13-3.22 12.5-2.44 12.35 0 1.66 0 1.51-2.44 4.93-3.22Q4.98-3.56 5-4.59 5.03-5.62 5.08-7.08 5.13-8.54 5.13-10.11L5.13-10.11 5.27-19.24Q5.32-21.83 5.3-23.32 5.27-24.8 5.27-25.44L5.27-25.44 2.2-26.22ZM57.32 0L44.24 0 44.09-2.29 47.36-3.08Q47.41-3.27 47.46-3.98 47.51-4.69 47.56-5.74 47.6-6.79 47.6-7.96L47.6-7.96 47.65-11.62Q47.65-13.09 47.56-14.23 47.46-15.38 47.21-16.65L47.21-16.65 43.94-17.33 43.94-19.53 52.93-21.73 54.25-20.9Q54.1-19.34 54.03-17.75 53.95-16.16 53.95-14.16L53.95-14.16 53.95-8.01Q53.95-6.4 54.03-4.93 54.1-3.47 54.25-3.08L54.25-3.08 57.47-2.29 57.32 0ZM50.88-25.73L50.88-25.73Q48.87-25.73 47.78-26.93 46.68-28.13 46.68-29.69L46.68-29.69Q46.68-31.25 47.78-32.45 48.87-33.64 50.88-33.64L50.88-33.64Q52.88-33.64 53.93-32.45 54.98-31.25 54.98-29.69L54.98-29.69Q54.98-28.13 53.93-26.93 52.88-25.73 50.88-25.73ZM67.23 0.39L67.23 0.39Q64.99 0.39 63.35-0.59 61.71-1.56 60.86-2.93 60-4.3 60-5.52L60-5.52Q60-7.32 61.1-8.5 62.2-9.67 64.5-10.35L64.5-10.35 72.16-12.6 72.16-14.36Q72.16-15.38 71.5-16.28 70.84-17.19 69.77-17.77 68.7-18.36 67.48-18.36L67.48-18.36Q66.69-18.36 66.38-17.99 66.06-17.63 65.96-16.55L65.96-16.55 65.72-13.57Q63.28-13.09 61.74-13.75 60.2-14.4 60.2-15.92L60.2-15.92Q60.2-16.85 61.18-17.82 62.15-18.8 63.59-19.65 65.03-20.51 66.55-21.12 68.06-21.73 69.23-21.83L69.23-21.83Q73.53-21.83 76.09-19.85 78.66-17.87 78.66-14.55L78.66-14.55 78.51-7.76Q78.51-6.4 78.58-5.64 78.66-4.88 78.9-4.39L78.9-4.39 82.08-3.81 82.08-1.76 78.9-0.34Q78.07 0 77.31 0.2 76.56 0.39 75.87 0.39L75.87 0.39Q73.97 0.39 73.19-1.56L73.19-1.56 72.36-3.81 73.38-3.56Q71.87-1.71 70.28-0.66 68.7 0.39 67.23 0.39ZM69.72-4L69.72-4Q70.41-4 71.04-4.27 71.67-4.54 72.21-5.08L72.21-5.08 72.21-9.86 68.89-9.28Q67.72-9.08 67.18-8.5 66.65-7.91 66.65-6.98L66.65-6.98Q66.65-5.81 67.55-4.91 68.45-4 69.72-4Z" opacity="1" transform="matrix(1,0,0,1,0,0)" fill="#ad6e7c" class="undefined-text-0" data-fill-palette-color="primary" id="text-0"></path></svg></g></svg></g></svg></g></svg></g><g></g></svg></g></svg></g></svg></g><g><path d="M102.051 47.597A122.216 122.216 0 0 1 293.469 47.597L284.158 47.597A112.904 112.904 0 0 0 111.362 47.597L102.051 47.597M102.051 199.603A122.216 122.216 0 0 0 293.469 199.603L284.158 199.603A112.904 112.904 0 0 1 111.362 199.603L102.051 199.603" fill="#975462" stroke="transparent" data-fill-palette-color="tertiary"></path></g></svg></g><defs></defs></svg><rect width="395.52" height="247.2" fill="none" stroke="none" visibility="hidden"></rect></g></svg></g></svg>